<?xml version="1.0" encoding="iso-8859-1"?>
<!-- Generator: Adobe Illustrator 19.0.0, SVG Export Plug-In . SVG Version: 6.00 Build 0)  -->
<svg version="1.1" id="Capa_1" xmlns="http://www.w3.org/2000/svg" xmlns:xlink="http://www.w3.org/1999/xlink" x="0px" y="0px"
	 viewBox="0 0 512.011 512.011" style="enable-background:new 0 0 512.011 512.011;" xml:space="preserve">
<g>
	<g>
		<path d="M426.358,349.425l-24.619-98.496c-0.768-3.072-2.837-5.632-5.675-7.019c-2.837-1.387-6.144-1.429-9.024-0.149
			c-17.387,7.765-36.416,15.915-57.984,24.597c-8.725,3.52-18.219,7.232-28.224,11.051c-3.2,1.216-5.611,3.904-6.507,7.211
			c-0.875,3.307-0.107,6.848,2.069,9.493l68.715,83.968c2.048,2.56,5.12,3.925,8.235,3.925c1.621,0,3.243-0.363,4.779-1.131
			l42.667-21.333C425.249,359.302,427.574,354.268,426.358,349.425z"/>
	</g>
</g>
<g>
	<g>
		<path d="M319.926,137.35c-0.512-4.203-3.456-7.68-7.509-8.896l-213.333-64c-3.755-1.131-7.829-0.085-10.624,2.667l-42.667,42.667
			c-2.347,2.347-3.477,5.675-3.029,8.96s2.389,6.208,5.291,7.851l149.333,85.333c1.643,0.939,3.477,1.408,5.291,1.408
			c1.899,0,3.797-0.512,5.483-1.515l106.667-64C318.454,145.649,320.438,141.553,319.926,137.35z"/>
	</g>
</g>
<g>
	<g>
		<path d="M502.134,106.502c-0.277,0.021-0.512,0.171-0.789,0.171c-38.101,0-78.592,29.611-78.976,29.909
			c-1.92,1.408-4.139,2.091-6.357,2.091c-3.264,0-6.485-1.493-8.576-4.331c-3.52-4.736-2.517-11.392,2.219-14.912
			c1.408-1.045,26.944-19.776,58.752-29.013c-13.184-3.115-30.229-5.077-52.395-5.077c-60.309,0-129.557,31.637-132.459,32.981
			c-5.333,2.475-7.68,8.811-5.227,14.165c0.171,0.363,0.491,0.597,0.683,0.939l-88.64,53.163c-2.837-4.715-8.789-6.635-13.803-4.117
			l-16.405,8.192l37.227,21.269c3.307,1.877,7.552,1.835,10.773-0.107l106.667-64c5.077-3.051,11.605-1.387,14.635,3.648
			c3.029,5.056,1.387,11.605-3.648,14.635l-106.667,64c-4.949,2.987-10.667,4.565-16.469,4.565c-5.547,0-11.051-1.451-15.872-4.224
			l-49.557-28.309l-19.904,9.941L36.79,171.804c-4.139-2.048-9.067-1.259-12.331,1.984L3.126,195.121
			c-3.584,3.584-4.16,9.237-1.344,13.461l36.16,54.229C0.011,284.017,0.011,294.513,0.011,298.673
			c0,19.221,27.328,21.333,85.333,21.333c56.789,0,426.667-124.907,426.667-192C512.011,122.652,510.283,114.374,502.134,106.502z"
			/>
	</g>
</g>
<g>
	<g>
		<path d="M245.344,426.673H10.678c-5.888,0-10.667,4.779-10.667,10.667c0,5.888,4.779,10.667,10.667,10.667h234.667
			c5.888,0,10.667-4.779,10.667-10.667C256.011,431.452,251.232,426.673,245.344,426.673z"/>
	</g>
</g>
<g>
</g>
<g>
</g>
<g>
</g>
<g>
</g>
<g>
</g>
<g>
</g>
<g>
</g>
<g>
</g>
<g>
</g>
<g>
</g>
<g>
</g>
<g>
</g>
<g>
</g>
<g>
</g>
<g>
</g>
</svg>
