<svg id="Layer_1" enable-background="new 0 0 510 510" height="512" viewBox="0 0 510 510" width="512" xmlns="http://www.w3.org/2000/svg"><g><path d="m100.156 440.039c3.26-2.999 79.844-74.384 79.844-155.039 0-49.626-40.374-90-90-90s-90 40.374-90 90c0 81.182 76.623 152.097 79.885 155.075l10.152 9.273zm-25.156-140.039v-30h30v30z"/><path d="m409.884 245.076 10.153 9.272 10.119-9.31c3.26-2.998 79.844-74.384 79.844-155.038 0-49.626-40.374-90-90-90s-90 40.374-90 90c0 81.182 76.622 152.097 79.884 155.076zm-4.884-170.076h30v30h-30z"/><path d="m442.5 375h-172.5c-16.542 0-30-13.458-30-30s13.458-30 30-30h150v-30h-150c-33.084 0-60 26.916-60 60s26.916 60 60 60h172.5c20.678 0 37.5 16.822 37.5 37.5s-16.822 37.5-37.5 37.5h-352.5v30h352.5c37.22 0 67.5-30.28 67.5-67.5s-30.28-67.5-67.5-67.5z"/></g></svg>